<svg height="293.725228" viewBox="0 0 13.529579 11.539746" width="340.454242" xmlns="http://www.w3.org/2000/svg" xmlns:xlink="http://www.w3.org/1999/xlink"><filter id="a" height="1" width="1" x="0" y="0"><feColorMatrix in="SourceGraphic" type="matrix" values="0 0 0 0 1 0 0 0 0 1 0 0 0 0 1 0 0 0 1 0"/></filter><clipPath id="b"><path d="m183.50391 575h13.49609v14h-13.49609zm0 0"/></clipPath><mask id="c"><g filter="url(#a)"><path d="m0 0h595.276v841.89001h-595.276z" fill-opacity=".880005"/></g></mask><clipPath id="d"><path d="m.566406.777344h12.492188v12.492187h-12.492188zm0 0"/></clipPath><clipPath id="e"><path d="m0 0h14v14h-14z"/></clipPath><mask id="f"><g filter="url(#a)"><path d="m0 0h595.276v841.89001h-595.276z" fill-opacity=".880005"/></g></mask><clipPath id="g"><path d="m.121094.777344h12.492187v12.492187h-12.492187zm0 0"/></clipPath><clipPath id="h"><path d="m0 0h13v14h-13z"/></clipPath><clipPath id="i"><path d="m208 575h13.24219v14h-13.24219zm0 0"/></clipPath><mask id="j"><g filter="url(#a)"><path d="m0 0h595.276v841.89001h-595.276z" fill-opacity=".880005"/></g></mask><clipPath id="k"><path d="m.675781.777344h12.492188v12.492187h-12.492188zm0 0"/></clipPath><clipPath id="l"><path d="m0 0h14v14h-14z"/></clipPath><clipPath id="m"><path d="m183.50391 567h13.49609v13h-13.49609zm0 0"/></clipPath><mask id="n"><g filter="url(#a)"><path d="m0 0h595.276v841.89001h-595.276z" fill-opacity=".880005"/></g></mask><clipPath id="o"><path d="m.566406.0507813h12.492188v12.4687497h-12.492188zm0 0"/></clipPath><clipPath id="p"><path d="m0 0h14v13h-14z"/></clipPath><mask id="q"><g filter="url(#a)"><path d="m0 0h595.276v841.89001h-595.276z" fill-opacity=".880005"/></g></mask><clipPath id="r"><path d="m.121094.0507813h12.492187v12.4687497h-12.492187zm0 0"/></clipPath><clipPath id="s"><path d="m0 0h13v13h-13z"/></clipPath><clipPath id="t"><path d="m208 567h13.24219v13h-13.24219zm0 0"/></clipPath><mask id="u"><g filter="url(#a)"><path d="m0 0h595.276v841.89001h-595.276z" fill-opacity=".880005"/></g></mask><clipPath id="v"><path d="m.675781.0507813h12.492188v12.4921877h-12.492188zm0 0"/></clipPath><clipPath id="w"><path d="m0 0h14v13h-14z"/></clipPath><clipPath id="x"><path d="m192 591h7v8.8125h-7zm0 0"/></clipPath><symbol id="y" overflow="visible"/><symbol id="z" overflow="visible"/><symbol id="A" overflow="visible"/><symbol id="B" overflow="visible"/><symbol id="C" overflow="visible"/><g transform="translate(-69.378931 -202.96577)"><g transform="matrix(.35277779 0 0 .35277779 4.753072 3.055144)"><use fill="#0073c7" height="100%" width="100%" x="96.520599" xlink:href="#y" y="148.9324"/><use height="100%" width="100%" x="41.047699" xlink:href="#z" y="185.20171"/><use height="100%" width="100%" x="42.294102" xlink:href="#z" y="236.20171"/><use height="100%" width="100%" x="259.76749" xlink:href="#z" y="287.20169"/><use height="100%" width="100%" x="299.72751" xlink:href="#z" y="287.20169"/><use fill="#0073c7" height="100%" width="100%" x="351.6257" xlink:href="#A" y="86.866096"/><use height="100%" width="100%" x="393.76959" xlink:href="#z" y="236.20171"/><use height="100%" width="100%" x="412.51361" xlink:href="#z" y="236.20171"/><use height="100%" width="100%" x="30.836399" xlink:href="#B" y="779.87421"/><use height="100%" width="100%" x="535.90918" xlink:href="#B" y="779.87421"/><use height="100%" width="100%" x="540.56641" xlink:href="#B" y="786.87622"/><use height="100%" width="100%" x="528.8382" xlink:href="#B" y="793.87817"/><use height="100%" width="100%" x="460.39981" xlink:href="#B" y="800.88019"/><use height="100%" width="100%" x="523.01343" xlink:href="#B" y="800.88019"/><use height="100%" width="100%" x="49.118401" xlink:href="#B" y="807.8822"/><use height="100%" width="100%" x="106.5556" xlink:href="#C" y="313.70721"/><use height="100%" width="100%" x="180.07651" xlink:href="#z" y="416.8869"/><use height="100%" width="100%" x="188.8333" xlink:href="#z" y="427.08691"/><g clip-path="url(#b)"><g clip-path="url(#e)" mask="url(#c)" transform="translate(183 575)"><g clip-path="url(#d)"><path d="m6.84375 4.519531c.6875 0 1.285156.246094 1.777344.734375.488281.488282.734375 1.070313.734375 1.761719 0 .6875-.246094 1.277344-.734375 1.765625-.492188.484375-1.121094.738281-1.808594.738281s-1.253906-.253906-1.746094-.738281c-.488281-.488281-.734375-1.078125-.734375-1.765625 0-.691406.246094-1.273437.734375-1.761719.492188-.488281 1.089844-.734375 1.777344-.734375m-4.449219-1.914062c-1.214843 1.222656-1.828125 2.6875-1.828125 4.417969 0 1.726562.613282 3.191406 1.828125 4.414062 1.226563 1.21875 2.6875 1.832031 4.417969 1.832031s3.191406-.613281 4.417969-1.832031c1.148437-1.148437 1.75-2.5 1.820312-4.085937.0078-.117188.0078-.222657.0078-.328125v-.164063c-.03905-1.652344-.640612-3.066406-1.828112-4.253906-1.226563-1.226563-2.671875-1.824219-4.402344-1.824219s-3.207031.597656-4.433594 1.824219" fill="#007dc5"/></g></g></g></g><g clip-path="url(#h)" mask="url(#f)" transform="matrix(.35277779 0 0 .35277779 73.897518 205.90237)"><g clip-path="url(#g)"><path d="m6.386719 4.519531c.695312 0 1.296875.246094 1.785156.734375.492188.488282.734375 1.070313.734375 1.761719 0 .6875-.242187 1.277344-.734375 1.765625-.488281.484375-1.089844.738281-1.785156.738281-.699219 0-1.277344-.253906-1.765625-.738281-.488281-.488281-.734375-1.078125-.734375-1.765625 0-.691406.246094-1.273437.734375-1.761719.488281-.488281 1.066406-.734375 1.765625-.734375m-4.4375-1.914062c-1.222656 1.222656-1.828125 2.6875-1.828125 4.417969 0 1.726562.605469 3.191406 1.828125 4.414062 1.21875 1.21875 2.714844 1.832031 4.4375 1.832031s3.179687-.613281 4.398437-1.832031c1.148438-1.148437 1.742188-2.5 1.820313-4.085937 0-.117188.0078-.222657.0078-.328125v-.164063c-.03905-1.652344-.644519-3.066406-1.828113-4.253906-1.21875-1.226563-2.675781-1.824219-4.398437-1.824219s-3.21875.597656-4.4375 1.824219" fill="#007dc5"/></g></g><g clip-path="url(#i)" transform="matrix(.35277779 0 0 .35277779 4.753072 3.055144)"><g clip-path="url(#l)" mask="url(#j)" transform="translate(208 575)"><g clip-path="url(#k)"><path d="m6.933594 4.542969c.695312 0 1.304687.222656 1.792969.710937.492187.488282.734375 1.070313.734375 1.761719 0 .6875-.242188 1.277344-.734375 1.765625-.488282.484375-1.097657.738281-1.792969.738281-.699219 0-1.269531-.253906-1.757813-.738281-.492187-.488281-.734375-1.078125-.734375-1.765625 0-.691406.242188-1.273437.734375-1.761719.488282-.488281 1.058594-.710937 1.757813-.710937m-4.429688-1.9375c-1.222656 1.222656-1.828125 2.6875-1.828125 4.417969 0 1.726562.605469 3.191406 1.828125 4.414062 1.222657 1.21875 2.707032 1.832031 4.429688 1.832031s3.1875-.613281 4.402344-1.832031c1.152343-1.148437 1.746093-2.5 1.824218-4.085937 0-.117188.0078-.222657.0078-.328125v-.164063c-.03905-1.652344-.644518-3.066406-1.832018-4.253906-1.214844-1.226563-2.679688-1.824219-4.402344-1.824219s-3.207031.597656-4.429688 1.824219" fill="#007dc5"/></g></g></g><g clip-path="url(#m)" transform="matrix(.35277779 0 0 .35277779 4.753072 3.055144)"><g clip-path="url(#p)" mask="url(#n)" transform="translate(183 567)"><g clip-path="url(#o)"><path d="m6.8125 3.792969c.6875 0 1.316406.246094 1.808594.734375.488281.488281.734375 1.070312.734375 1.761719 0 .6875-.246094 1.285156-.734375 1.765625-.492188.484375-1.121094.722656-1.808594.722656s-1.253906-.238281-1.746094-.722656c-.488281-.480469-.734375-1.078125-.734375-1.765625 0-.691407.246094-1.273438.734375-1.761719.492188-.488281 1.058594-.734375 1.746094-.734375m6.238281 2.832031c.0078-.117187.0078-.222656.0078-.328125v-.164062c-.03905-1.652344-.644518-3.066407-1.828112-4.253907-1.226563-1.226562-2.6875-1.8281247-4.417969-1.8281247s-3.191406.6015627-4.417969 1.8281247c-1.214843 1.222657-1.828125 2.6875-1.828125 4.417969 0 1.722656.613282 3.199219 1.828125 4.414063 1.226563 1.21875 2.6875 1.808593 4.417969 1.808593s3.191406-.589843 4.417969-1.808593c1.148437-1.140625 1.753906-2.507813 1.820312-4.085938" fill="#007dc5"/></g></g></g><g clip-path="url(#s)" mask="url(#q)" transform="matrix(.35277779 0 0 .35277779 73.897518 203.08015)"><g clip-path="url(#r)"><path d="m6.386719 3.792969c.695312 0 1.296875.246094 1.785156.734375.492188.488281.734375 1.070312.734375 1.761719 0 .6875-.242187 1.285156-.734375 1.765625-.488281.484375-1.089844.722656-1.785156.722656-.699219 0-1.277344-.238281-1.765625-.722656-.488281-.480469-.734375-1.078125-.734375-1.765625 0-.691407.246094-1.273438.734375-1.761719s1.066406-.734375 1.765625-.734375m6.21875 2.832031c0-.117187.0078-.222656.0078-.328125v-.164062c-.03905-1.652344-.644519-3.066407-1.828113-4.253907-1.21875-1.226562-2.675781-1.8281247-4.398437-1.8281247s-3.21875.6015627-4.4375 1.8281247c-1.222656 1.222657-1.828125 2.6875-1.828125 4.417969 0 1.722656.605469 3.199219 1.828125 4.414063 1.21875 1.21875 2.714844 1.808593 4.4375 1.808593s3.179687-.589843 4.398437-1.808593c1.148438-1.140625 1.742188-2.507813 1.820313-4.085938" fill="#007dc5"/></g></g><g clip-path="url(#t)" transform="matrix(.35277779 0 0 .35277779 4.753072 3.055144)"><g clip-path="url(#w)" mask="url(#u)" transform="translate(208 567)"><g clip-path="url(#v)"><path d="m8.726563 4.527344c.492187.488281.734375 1.070312.734375 1.761719 0 .6875-.242188 1.285156-.734375 1.765625-.488282.484375-1.097657.722656-1.792969.722656-.699219 0-1.269531-.238281-1.757813-.722656-.488281-.480469-.734375-1.078125-.734375-1.765625 0-.691407.246094-1.273438.734375-1.761719.488282-.492188 1.058594-.734375 1.757813-.734375.695312 0 1.304687.242187 1.792969.734375m4.441406 1.769531v-.160156c-.039063-1.65625-.644531-3.070313-1.832031-4.257813-1.214844-1.226562-2.679688-1.8281247-4.402344-1.8281247s-3.203125.6015627-4.429688 1.8281247c-1.222656 1.222657-1.828125 2.6875-1.828125 4.417969 0 1.722656.605469 3.199219 1.828125 4.414063 1.226563 1.21875 2.707032 1.832031 4.429688 1.832031s3.1875-.613281 4.402344-1.832031c1.152343-1.140625 1.746093-2.511719 1.824218-4.085938 0-.113281.0078-.222656.0078-.328125" fill="#007dc5"/></g></g></g><g clip-path="url(#x)" transform="matrix(.35277779 0 0 .35277779 4.753072 3.055144)"><path d="m197.58203 593.88672c0-1.08203-.76953-1.83203-1.76562-1.83203-.96875 0-1.78125.75-1.78125 1.83203v.0195c0 1.07031.79296 1.83203 1.75781 1.83203.98828 0 1.78906-.76172 1.78906-1.83203zm1.07422.008v.0234c0 1.62109-1.14453 2.82812-2.74609 2.82812-.9375 0-1.60157-.44531-1.98829-1.14453v3.41016h-1.05078v-7.85156h1.05078v1.01953c.38672-.69532 1.05079-1.1211 1.98829-1.1211 1.60937 0 2.74609 1.21485 2.74609 2.83594" fill="#007dc5"/></g><path d="m76.770728 212.56932v-.008c0-.37758-.282498-.64493-.631141-.64493-.340378 0-.620116.26735-.620116.64493v.008c0 .38172.286632.64492.628385.64492.351399 0 .622872-.2632.622872-.64492m-1.624708.003v-.007c0-.56913.428572-1.00184.997702-1.00184.569129 0 1.001832.42168 1.001832.99495v.007c0 .57188-.429948 1.00458-1.001832 1.00458-.564999 0-.997702-.42443-.997702-.99769" fill="#007dc5"/><path d="m78.125338 212.72228-.260449.30179v.50574h-.370692v-2.7106h.370692v1.69499l.792374-.91088h.436838l-.745518.86265.829578 1.06384h-.432703zm0 0" fill="#007dc5"/><path d="m80.733967 212.38467c-.0041-.23014-.173633-.49885-.562239-.49885-.307305 0-.512632.21635-.571888.49885zm.366558.27974h-1.515844c.03721.34864.279742.58291.613227.58291.249428 0 .45062-.13919.558108-.34865l.285253.15434c-.157096.28939-.439593.51677-.86541.51677-.553971 0-.972894-.42444-.972894-.9977v-.007c0-.56913.418923-1.00184.957739-1.00184.635275 0 .939821.49472.939821.96188zm0 0" fill="#007dc5"/><path d="m81.445033 211.60332h.370692v.44097c.125402-.27837.370692-.47404.693156-.46991v.35277h-.04686c-.356913 0-.6463.31144-.6463.62288v.97978h-.370692zm0 0" fill="#007dc5"/><use height="100%" transform="matrix(.35277779 0 0 .35277779 4.753072 3.055144)" width="100%" x="42.119701" xlink:href="#z" y="746.0993"/><use height="100%" transform="matrix(.35277779 0 0 .35277779 4.753072 3.055144)" width="100%" x="86.718102" xlink:href="#z" y="746.0993"/><use height="100%" transform="matrix(.35277779 0 0 .35277779 4.753072 3.055144)" width="100%" x="100.5405" xlink:href="#z" y="746.0993"/><use height="100%" transform="matrix(.35277779 0 0 .35277779 4.753072 3.055144)" width="100%" x="224.2244" xlink:href="#z" y="746.0993"/><use height="100%" transform="matrix(.35277779 0 0 .35277779 4.753072 3.055144)" width="100%" x="413.31461" xlink:href="#z" y="756.29932"/><use fill="#0073c7" height="100%" transform="matrix(.35277779 0 0 .35277779 4.753072 3.055144)" width="100%" x="296.85031" xlink:href="#y" y="384.20801"/><use fill="#0073c7" height="100%" transform="matrix(.35277779 0 0 .35277779 4.753072 3.055144)" width="100%" x="315.71069" xlink:href="#y" y="384.20801"/></g></svg>