<svg xmlns="http://www.w3.org/2000/svg" width="134" height="48" viewBox="0 0 134 48" fill="none"><g clip-path="url(#clip0_225_5)"><path d="M12.3008 0.0090332H24.9287V7.2105L12.4971 7.27597L11.3848 7.53784L10.5996 7.86518L9.81445 8.32346L9.09473 8.91267L8.44043 9.63282L7.91699 10.4839L7.58984 11.204L7.32812 12.1206L7.2627 12.5134V15.0012L7.45898 15.9177L7.78613 16.7688L8.24414 17.6199L8.83301 18.34L9.42188 18.9293L10.4033 19.5839L11.5156 20.0422L12.3662 20.2386L13.0859 20.3041L33.7617 20.3696V47.8661H22.6387L22.377 47.2114L21.3955 44.3963L20.0215 40.4682L18.9092 37.3257L18.9746 37.1293L19.6289 36.7365L20.2832 36.1473L20.7412 35.6236L21.2646 34.6416L21.4609 33.9214L21.5264 33.5286V32.1538L21.3301 31.3682L20.8066 30.3207L20.2178 29.6005L19.5635 29.0768L18.5166 28.553L17.9277 28.3566L17.6006 28.2912H16.0957L15.3105 28.4876L14.2637 29.0113L13.4131 29.7315L12.8242 30.5825L12.4316 31.4336L12.2354 32.3502V33.4631L12.4971 34.5761L12.9551 35.4926L13.4131 36.0819L13.9365 36.6056L14.8525 37.1948L14.6562 37.915L13.5439 41.0574L12.2354 44.8546L11.1885 47.8006L11.0576 47.997H0V32.6775L0.196289 31.1718L0.588867 29.6005L1.24316 27.9638L1.83203 26.8509L2.35547 26.0653L3.00977 25.2142L3.59863 24.5595L3.86035 24.2322L4.12207 24.0358L4.05664 23.7739L3.20605 22.9228L2.35547 21.8098L1.63574 20.6314L1.1123 19.5839L0.719727 18.6019L0.327148 17.2926L0.0654297 15.8523L0 15.1976V12.317L0.196289 10.8767L0.523438 9.50188L1.04688 8.06159L1.57031 7.0141L2.09375 6.09755L2.81348 5.11553L3.5332 4.26445L4.51465 3.28243L5.43066 2.56228L6.41211 1.9076L7.45898 1.31839L9.09473 0.663712L10.207 0.336373L11.6465 0.0745011L12.3008 0.0090332Z" fill="#6E56E3"></path><path d="M99.2568 17.6169H104.099V47.4703H99.584L99.3877 45.899L99.2568 44.5897L98.4717 45.5717L97.6865 46.3573L96.7051 47.012L95.5273 47.5357L94.2842 47.8631L93.3682 47.994H91.6016L90.2275 47.7976L88.9189 47.4048L87.6758 46.8156L86.7598 46.1609L86.1055 45.5717L85.4512 44.917L84.7314 43.8695L84.1426 42.7566L83.6846 41.5127L83.3574 40.0724L83.2266 39.1558L83.1611 38.2393L83.0303 39.4832L82.7031 40.858L82.2451 42.1019L81.5908 43.3458L80.8057 44.3933L80.0205 45.2444L79.2354 45.899L78.3193 46.4883L77.3379 47.012L76.0947 47.4703L74.7861 47.7976L73.8047 47.9285H71.3184L70.0098 47.7321L68.6357 47.3393L67.6543 46.9465L66.6729 46.4228L65.8223 45.8336L64.9062 45.048L64.1865 44.2623L63.4668 43.2149L62.8125 41.971L62.4199 40.858L62.0928 39.4832L61.9619 38.3048V36.7335L62.0928 35.5551L62.4199 34.1803L62.8779 32.9364L63.5322 31.6925L64.3174 30.645L65.1025 29.7939L65.8223 29.2047L66.8037 28.5501L67.7852 28.0263L69.2246 27.5026L70.7949 27.1752L71.3838 27.1098H73.7393L75.0479 27.3062L76.291 27.6335L77.5996 28.1572L78.6465 28.7465L79.3662 29.2702L80.2822 30.0558L80.9365 30.776L81.6562 31.8234L82.3105 33.0673L82.834 34.6386L83.0303 35.5551L83.1611 36.799L83.3574 35.1623L83.6846 33.7875L84.1426 32.4781L84.7969 31.2342L85.4512 30.3177L86.2363 29.4666L86.8252 28.9429L87.4795 28.4846L88.5264 27.8954L89.7695 27.4371L90.8818 27.1752L91.9287 27.0443H93.5645L94.8076 27.2407L95.9199 27.568L96.8359 27.9608L97.5557 28.4191L98.21 28.9429L98.8643 29.5975L99.1914 30.0558L99.2568 17.6169ZM92.8447 31.4306L91.667 31.6925L90.8818 32.0198L90.0312 32.6091L89.4424 33.1983L88.9844 33.853L88.5264 34.7695L88.1992 35.8825L88.0684 36.8645V38.1084L88.2646 39.3523L88.5918 40.3343L89.1152 41.3163L89.835 42.1674L90.6201 42.7566L91.6016 43.2149L92.7139 43.4767H94.415L95.5928 43.2149L96.6396 42.6911L97.3594 42.1674L97.8174 41.7091L98.2754 41.0544L98.7988 40.0069L99.0605 39.0904L99.1914 38.1738V36.799L98.9951 35.6206L98.668 34.6386L98.21 33.7875L97.752 33.1983L97.0977 32.5436L96.3779 32.0853L95.5273 31.6925L94.7422 31.4961L94.2842 31.4306H92.8447ZM71.6455 31.4961L70.5332 31.758L69.4863 32.2817L68.832 32.74L68.1777 33.3947L67.5889 34.3112L67.2617 35.0314L67 35.9479L66.8691 36.799V38.2393L67.0654 39.4177L67.458 40.4652L67.8506 41.1854L68.3086 41.7746L68.9629 42.4292L69.6826 42.8875L70.5332 43.2803L71.5801 43.5422L72.7578 43.6077L73.8701 43.4767L74.917 43.1494L75.8984 42.6256L76.6836 41.9055L77.1416 41.3818L77.665 40.4652L78.0576 39.4177L78.2539 38.2393V36.799L78.0576 35.6861L77.7305 34.704L77.2725 33.853L76.749 33.1983L76.2256 32.6745L75.3096 32.0853L74.3936 31.6925L73.4775 31.4961H71.6455Z" fill="white"></path><path d="M41.0898 18.1406H53.3906L55.0918 18.337L56.5312 18.6644L57.6436 19.0572L58.6904 19.5809L59.6064 20.1701L60.457 20.8903L61.1113 21.6104L61.7002 22.527L62.2236 23.6399L62.5508 24.6874L62.7471 25.7349L62.8125 26.3241V28.2881L62.6162 29.5975L62.2236 30.9069L61.7002 31.9543L61.2422 32.6745L60.6533 33.3946L60.1953 33.8529L59.3447 34.5076L58.2324 35.1623L57.5781 35.4896L58.6904 37.8464L59.6719 40.0069L60.7188 42.2328L63.0742 47.3393V47.4702H57.4473L56.335 45.0479L55.2881 42.6911L54.0449 40.0069L52.998 37.65L52.54 36.668V36.5371H46.1934V47.4702H41.0898V18.1406ZM46.1934 22.7234V31.9543H53.2598L54.2412 31.7579L55.0918 31.4306L55.877 30.9723L56.5312 30.3176L57.0547 29.4666L57.3164 28.6809L57.4473 27.8953V26.7169L57.251 25.7349L56.9238 24.9493L56.5312 24.3601L56.2041 23.9673L55.4844 23.4435L54.6338 23.0507L53.5869 22.7888L53.0635 22.7234H46.1934Z" fill="white"></path><path d="M114.109 27.0443H115.941L117.119 27.1752L118.493 27.5025L119.475 27.8953L120.325 28.3536L121.11 28.9428L121.961 29.7939L122.615 30.7759L123.073 31.7579L123.466 33.1328L123.597 33.9184L123.662 34.704V47.4702H119.344L119.082 45.5062L118.951 44.7206L118.559 45.3752L117.97 46.0299L117.381 46.5537L116.53 47.0774L115.614 47.4702L114.502 47.7976L113.259 47.994H111.492L110.249 47.7976L109.071 47.4048L108.09 46.881L107.436 46.3573L106.847 45.7681L106.258 44.8515L105.865 43.8695L105.669 43.0839L105.604 42.5601V41.1198L105.8 40.0724L106.192 39.0249L106.65 38.3047L107.37 37.5191L108.024 36.9954L108.94 36.4716L110.053 36.0133L111.361 35.686L112.801 35.4896L118.101 35.0968H118.886L118.755 33.6565L118.493 32.74L118.035 32.0198L117.512 31.5615L116.661 31.1687L115.876 30.9723L115.222 30.9069H114.306L113.193 31.0378L112.146 31.3651L111.558 31.6925L110.903 32.2817L110.511 33.0018L110.38 33.5256L110.314 34.1148L110.249 34.1802H106.127V33.3946L106.389 32.0853L106.781 31.1033L107.305 30.2522L108.09 29.3356L109.006 28.6155L110.053 28.0263L111.034 27.6335L112.212 27.3061L113.39 27.1097L114.109 27.0443ZM118.101 38.4357L114.175 38.763L112.866 39.0249L111.885 39.4177L111.165 39.9414L110.772 40.5306L110.576 41.1853V42.1019L110.838 42.9529L111.296 43.5421L111.885 43.935L112.67 44.1968L113.717 44.3278L114.96 44.2623L116.007 44.0004L117.054 43.4767L117.708 42.8875L118.166 42.3637L118.624 41.4472L118.886 40.3342V38.4357H118.101Z" fill="white"></path><path d="M125.756 27.6335H130.663V47.4702H125.756V27.6335Z" fill="white"></path><path d="M129.485 19.3191H133.935L133.869 19.5809L133.019 20.8903L130.401 24.8838L130.14 25.2766H126.476L126.606 24.8838L127.522 23.1162L129.158 19.8428L129.485 19.3191Z" fill="white"></path></g><defs><clipPath id="clip0_225_5"><rect width="134" height="48" fill="white"></rect></clipPath></defs></svg>